<svg xmlns="http://www.w3.org/2000/svg" xmlns:xlink="http://www.w3.org/1999/xlink" width="45" zoomAndPan="magnify" viewBox="0 0 33.75 33.749999" height="45" preserveAspectRatio="xMidYMid meet" version="1.0"><defs><clipPath id="9a2dca40e6"><path d="M 0 0 L 33.5 0 L 33.5 33.5 L 0 33.5 Z M 0 0 " clip-rule="nonzero"/></clipPath><clipPath id="f8e04dcd97"><path d="M 33.75 5.488281 L 33.75 28.261719 C 33.75 31.292969 31.292969 33.75 28.261719 33.75 L 5.488281 33.75 C 2.457031 33.75 0 31.292969 0 28.261719 L 0 5.480469 C 0 2.457031 2.457031 0 5.488281 0 L 28.269531 0 C 31.292969 0 33.75 2.457031 33.75 5.488281 Z M 33.75 5.488281 " clip-rule="nonzero"/></clipPath><linearGradient x1="3.67643" gradientTransform="matrix(0.000000000000000004, -0.0675, 0.0675, 0.000000000000000004, 0.0000005, 33.749995)" y1="250" x2="499.999974" gradientUnits="userSpaceOnUse" y2="250" id="23751c1d46"><stop stop-opacity="1" stop-color="rgb(68.79425%, 68.79425%, 68.79425%)" offset="0"/><stop stop-opacity="1" stop-color="rgb(68.896484%, 68.896484%, 68.896484%)" offset="0.0078125"/><stop stop-opacity="1" stop-color="rgb(69.100952%, 69.100952%, 69.100952%)" offset="0.015625"/><stop stop-opacity="1" stop-color="rgb(69.306946%, 69.306946%, 69.306946%)" offset="0.0234375"/><stop stop-opacity="1" stop-color="rgb(69.512939%, 69.512939%, 69.512939%)" offset="0.03125"/><stop stop-opacity="1" stop-color="rgb(69.717407%, 69.717407%, 69.717407%)" offset="0.0390625"/><stop stop-opacity="1" stop-color="rgb(69.923401%, 69.923401%, 69.923401%)" offset="0.046875"/><stop stop-opacity="1" stop-color="rgb(70.127869%, 70.127869%, 70.127869%)" offset="0.0546875"/><stop stop-opacity="1" stop-color="rgb(70.333862%, 70.333862%, 70.333862%)" offset="0.0625"/><stop stop-opacity="1" stop-color="rgb(70.539856%, 70.539856%, 70.539856%)" offset="0.0703125"/><stop stop-opacity="1" stop-color="rgb(70.744324%, 70.744324%, 70.744324%)" offset="0.078125"/><stop stop-opacity="1" stop-color="rgb(70.950317%, 70.950317%, 70.950317%)" offset="0.0859375"/><stop stop-opacity="1" stop-color="rgb(71.154785%, 71.154785%, 71.154785%)" offset="0.09375"/><stop stop-opacity="1" stop-color="rgb(71.360779%, 71.360779%, 71.360779%)" offset="0.101563"/><stop stop-opacity="1" stop-color="rgb(71.566772%, 71.566772%, 71.566772%)" offset="0.109375"/><stop stop-opacity="1" stop-color="rgb(71.77124%, 71.77124%, 71.77124%)" offset="0.117188"/><stop stop-opacity="1" stop-color="rgb(71.977234%, 71.977234%, 71.977234%)" offset="0.125"/><stop stop-opacity="1" stop-color="rgb(72.181702%, 72.181702%, 72.181702%)" offset="0.132812"/><stop stop-opacity="1" stop-color="rgb(72.387695%, 72.387695%, 72.387695%)" offset="0.140625"/><stop stop-opacity="1" stop-color="rgb(72.592163%, 72.592163%, 72.592163%)" offset="0.148438"/><stop stop-opacity="1" stop-color="rgb(72.798157%, 72.798157%, 72.798157%)" offset="0.15625"/><stop stop-opacity="1" stop-color="rgb(73.00415%, 73.00415%, 73.00415%)" offset="0.164062"/><stop stop-opacity="1" stop-color="rgb(73.208618%, 73.208618%, 73.208618%)" offset="0.171875"/><stop stop-opacity="1" stop-color="rgb(73.414612%, 73.414612%, 73.414612%)" offset="0.179687"/><stop stop-opacity="1" stop-color="rgb(73.61908%, 73.61908%, 73.61908%)" offset="0.1875"/><stop stop-opacity="1" stop-color="rgb(73.825073%, 73.825073%, 73.825073%)" offset="0.195312"/><stop stop-opacity="1" stop-color="rgb(74.031067%, 74.031067%, 74.031067%)" offset="0.203125"/><stop stop-opacity="1" stop-color="rgb(74.235535%, 74.235535%, 74.235535%)" offset="0.210938"/><stop stop-opacity="1" stop-color="rgb(74.441528%, 74.441528%, 74.441528%)" offset="0.21875"/><stop stop-opacity="1" stop-color="rgb(74.645996%, 74.645996%, 74.645996%)" offset="0.226562"/><stop stop-opacity="1" stop-color="rgb(74.85199%, 74.85199%, 74.85199%)" offset="0.234375"/><stop stop-opacity="1" stop-color="rgb(75.057983%, 75.057983%, 75.057983%)" offset="0.242188"/><stop stop-opacity="1" stop-color="rgb(75.262451%, 75.262451%, 75.262451%)" offset="0.25"/><stop stop-opacity="1" stop-color="rgb(75.468445%, 75.468445%, 75.468445%)" offset="0.257813"/><stop stop-opacity="1" stop-color="rgb(75.672913%, 75.672913%, 75.672913%)" offset="0.265625"/><stop stop-opacity="1" stop-color="rgb(75.878906%, 75.878906%, 75.878906%)" offset="0.273438"/><stop stop-opacity="1" stop-color="rgb(76.0849%, 76.0849%, 76.0849%)" offset="0.28125"/><stop stop-opacity="1" stop-color="rgb(76.289368%, 76.289368%, 76.289368%)" offset="0.289063"/><stop stop-opacity="1" stop-color="rgb(76.495361%, 76.495361%, 76.495361%)" offset="0.296875"/><stop stop-opacity="1" stop-color="rgb(76.699829%, 76.699829%, 76.699829%)" offset="0.304688"/><stop stop-opacity="1" stop-color="rgb(76.905823%, 76.905823%, 76.905823%)" offset="0.3125"/><stop stop-opacity="1" stop-color="rgb(77.110291%, 77.110291%, 77.110291%)" offset="0.320312"/><stop stop-opacity="1" stop-color="rgb(77.316284%, 77.316284%, 77.316284%)" offset="0.328125"/><stop stop-opacity="1" stop-color="rgb(77.522278%, 77.522278%, 77.522278%)" offset="0.335938"/><stop stop-opacity="1" stop-color="rgb(77.726746%, 77.726746%, 77.726746%)" offset="0.34375"/><stop stop-opacity="1" stop-color="rgb(77.932739%, 77.932739%, 77.932739%)" offset="0.351562"/><stop stop-opacity="1" stop-color="rgb(78.137207%, 78.137207%, 78.137207%)" offset="0.359375"/><stop stop-opacity="1" stop-color="rgb(78.343201%, 78.343201%, 78.343201%)" offset="0.367188"/><stop stop-opacity="1" stop-color="rgb(78.549194%, 78.549194%, 78.549194%)" offset="0.375"/><stop stop-opacity="1" stop-color="rgb(78.753662%, 78.753662%, 78.753662%)" offset="0.382812"/><stop stop-opacity="1" stop-color="rgb(78.959656%, 78.959656%, 78.959656%)" offset="0.390625"/><stop stop-opacity="1" stop-color="rgb(79.164124%, 79.164124%, 79.164124%)" offset="0.398438"/><stop stop-opacity="1" stop-color="rgb(79.370117%, 79.370117%, 79.370117%)" offset="0.40625"/><stop stop-opacity="1" stop-color="rgb(79.576111%, 79.576111%, 79.576111%)" offset="0.414062"/><stop stop-opacity="1" stop-color="rgb(79.780579%, 79.780579%, 79.780579%)" offset="0.421875"/><stop stop-opacity="1" stop-color="rgb(79.986572%, 79.986572%, 79.986572%)" offset="0.429688"/><stop stop-opacity="1" stop-color="rgb(80.19104%, 80.19104%, 80.19104%)" offset="0.4375"/><stop stop-opacity="1" stop-color="rgb(80.397034%, 80.397034%, 80.397034%)" offset="0.445313"/><stop stop-opacity="1" stop-color="rgb(80.603027%, 80.603027%, 80.603027%)" offset="0.453125"/><stop stop-opacity="1" stop-color="rgb(80.807495%, 80.807495%, 80.807495%)" offset="0.460938"/><stop stop-opacity="1" stop-color="rgb(81.013489%, 81.013489%, 81.013489%)" offset="0.46875"/><stop stop-opacity="1" stop-color="rgb(81.217957%, 81.217957%, 81.217957%)" offset="0.476563"/><stop stop-opacity="1" stop-color="rgb(81.42395%, 81.42395%, 81.42395%)" offset="0.484375"/><stop stop-opacity="1" stop-color="rgb(81.629944%, 81.629944%, 81.629944%)" offset="0.492188"/><stop stop-opacity="1" stop-color="rgb(81.834412%, 81.834412%, 81.834412%)" offset="0.5"/><stop stop-opacity="1" stop-color="rgb(82.067871%, 82.067871%, 82.067871%)" offset="0.507813"/><stop stop-opacity="1" stop-color="rgb(82.337952%, 82.337952%, 82.337952%)" offset="0.515625"/><stop stop-opacity="1" stop-color="rgb(82.620239%, 82.620239%, 82.620239%)" offset="0.523438"/><stop stop-opacity="1" stop-color="rgb(82.902527%, 82.902527%, 82.902527%)" offset="0.53125"/><stop stop-opacity="1" stop-color="rgb(83.184814%, 83.184814%, 83.184814%)" offset="0.539062"/><stop stop-opacity="1" stop-color="rgb(83.468628%, 83.468628%, 83.468628%)" offset="0.546875"/><stop stop-opacity="1" stop-color="rgb(83.750916%, 83.750916%, 83.750916%)" offset="0.554688"/><stop stop-opacity="1" stop-color="rgb(84.033203%, 84.033203%, 84.033203%)" offset="0.5625"/><stop stop-opacity="1" stop-color="rgb(84.315491%, 84.315491%, 84.315491%)" offset="0.570313"/><stop stop-opacity="1" stop-color="rgb(84.597778%, 84.597778%, 84.597778%)" offset="0.578125"/><stop stop-opacity="1" stop-color="rgb(84.881592%, 84.881592%, 84.881592%)" offset="0.585938"/><stop stop-opacity="1" stop-color="rgb(85.163879%, 85.163879%, 85.163879%)" offset="0.59375"/><stop stop-opacity="1" stop-color="rgb(85.446167%, 85.446167%, 85.446167%)" offset="0.601563"/><stop stop-opacity="1" stop-color="rgb(85.728455%, 85.728455%, 85.728455%)" offset="0.609375"/><stop stop-opacity="1" stop-color="rgb(86.010742%, 86.010742%, 86.010742%)" offset="0.617188"/><stop stop-opacity="1" stop-color="rgb(86.294556%, 86.294556%, 86.294556%)" offset="0.625"/><stop stop-opacity="1" stop-color="rgb(86.576843%, 86.576843%, 86.576843%)" offset="0.632813"/><stop stop-opacity="1" stop-color="rgb(86.859131%, 86.859131%, 86.859131%)" offset="0.640625"/><stop stop-opacity="1" stop-color="rgb(87.141418%, 87.141418%, 87.141418%)" offset="0.648438"/><stop stop-opacity="1" stop-color="rgb(87.423706%, 87.423706%, 87.423706%)" offset="0.65625"/><stop stop-opacity="1" stop-color="rgb(87.705994%, 87.705994%, 87.705994%)" offset="0.664063"/><stop stop-opacity="1" stop-color="rgb(87.989807%, 87.989807%, 87.989807%)" offset="0.671875"/><stop stop-opacity="1" stop-color="rgb(88.272095%, 88.272095%, 88.272095%)" offset="0.679688"/><stop stop-opacity="1" stop-color="rgb(88.554382%, 88.554382%, 88.554382%)" offset="0.6875"/><stop stop-opacity="1" stop-color="rgb(88.83667%, 88.83667%, 88.83667%)" offset="0.695312"/><stop stop-opacity="1" stop-color="rgb(89.118958%, 89.118958%, 89.118958%)" offset="0.703125"/><stop stop-opacity="1" stop-color="rgb(89.402771%, 89.402771%, 89.402771%)" offset="0.710938"/><stop stop-opacity="1" stop-color="rgb(89.685059%, 89.685059%, 89.685059%)" offset="0.71875"/><stop stop-opacity="1" stop-color="rgb(89.967346%, 89.967346%, 89.967346%)" offset="0.726563"/><stop stop-opacity="1" stop-color="rgb(90.249634%, 90.249634%, 90.249634%)" offset="0.734375"/><stop stop-opacity="1" stop-color="rgb(90.531921%, 90.531921%, 90.531921%)" offset="0.742188"/><stop stop-opacity="1" stop-color="rgb(90.815735%, 90.815735%, 90.815735%)" offset="0.75"/><stop stop-opacity="1" stop-color="rgb(91.098022%, 91.098022%, 91.098022%)" offset="0.757812"/><stop stop-opacity="1" stop-color="rgb(91.38031%, 91.38031%, 91.38031%)" offset="0.765625"/><stop stop-opacity="1" stop-color="rgb(91.662598%, 91.662598%, 91.662598%)" offset="0.773437"/><stop stop-opacity="1" stop-color="rgb(91.944885%, 91.944885%, 91.944885%)" offset="0.78125"/><stop stop-opacity="1" stop-color="rgb(92.227173%, 92.227173%, 92.227173%)" offset="0.789063"/><stop stop-opacity="1" stop-color="rgb(92.510986%, 92.510986%, 92.510986%)" offset="0.796875"/><stop stop-opacity="1" stop-color="rgb(92.793274%, 92.793274%, 92.793274%)" offset="0.804688"/><stop stop-opacity="1" stop-color="rgb(93.075562%, 93.075562%, 93.075562%)" offset="0.8125"/><stop stop-opacity="1" stop-color="rgb(93.357849%, 93.357849%, 93.357849%)" offset="0.820312"/><stop stop-opacity="1" stop-color="rgb(93.640137%, 93.640137%, 93.640137%)" offset="0.828125"/><stop stop-opacity="1" stop-color="rgb(93.92395%, 93.92395%, 93.92395%)" offset="0.835937"/><stop stop-opacity="1" stop-color="rgb(94.206238%, 94.206238%, 94.206238%)" offset="0.84375"/><stop stop-opacity="1" stop-color="rgb(94.488525%, 94.488525%, 94.488525%)" offset="0.851562"/><stop stop-opacity="1" stop-color="rgb(94.770813%, 94.770813%, 94.770813%)" offset="0.859375"/><stop stop-opacity="1" stop-color="rgb(95.053101%, 95.053101%, 95.053101%)" offset="0.867188"/><stop stop-opacity="1" stop-color="rgb(95.336914%, 95.336914%, 95.336914%)" offset="0.875"/><stop stop-opacity="1" stop-color="rgb(95.619202%, 95.619202%, 95.619202%)" offset="0.882812"/><stop stop-opacity="1" stop-color="rgb(95.901489%, 95.901489%, 95.901489%)" offset="0.890625"/><stop stop-opacity="1" stop-color="rgb(96.183777%, 96.183777%, 96.183777%)" offset="0.898437"/><stop stop-opacity="1" stop-color="rgb(96.466064%, 96.466064%, 96.466064%)" offset="0.90625"/><stop stop-opacity="1" stop-color="rgb(96.748352%, 96.748352%, 96.748352%)" offset="0.914062"/><stop stop-opacity="1" stop-color="rgb(97.032166%, 97.032166%, 97.032166%)" offset="0.921875"/><stop stop-opacity="1" stop-color="rgb(97.314453%, 97.314453%, 97.314453%)" offset="0.929688"/><stop stop-opacity="1" stop-color="rgb(97.596741%, 97.596741%, 97.596741%)" offset="0.9375"/><stop stop-opacity="1" stop-color="rgb(97.879028%, 97.879028%, 97.879028%)" offset="0.945312"/><stop stop-opacity="1" stop-color="rgb(98.161316%, 98.161316%, 98.161316%)" offset="0.953125"/><stop stop-opacity="1" stop-color="rgb(98.445129%, 98.445129%, 98.445129%)" offset="0.960938"/><stop stop-opacity="1" stop-color="rgb(98.727417%, 98.727417%, 98.727417%)" offset="0.96875"/><stop stop-opacity="1" stop-color="rgb(99.009705%, 99.009705%, 99.009705%)" offset="0.976562"/><stop stop-opacity="1" stop-color="rgb(99.291992%, 99.291992%, 99.291992%)" offset="0.984375"/><stop stop-opacity="1" stop-color="rgb(99.57428%, 99.57428%, 99.57428%)" offset="0.992187"/><stop stop-opacity="1" stop-color="rgb(99.856567%, 99.856567%, 99.856567%)" offset="1"/></linearGradient><clipPath id="bd36867dc0"><path d="M 3 8.335938 L 4 8.335938 L 4 25.585938 L 3 25.585938 Z M 3 8.335938 " clip-rule="nonzero"/></clipPath><clipPath id="e25042236c"><path d="M 9 8.335938 L 11 8.335938 L 11 25.585938 L 9 25.585938 Z M 9 8.335938 " clip-rule="nonzero"/></clipPath><clipPath id="5f221abbc4"><path d="M 16 8.335938 L 17 8.335938 L 17 25.585938 L 16 25.585938 Z M 16 8.335938 " clip-rule="nonzero"/></clipPath><clipPath id="179b4dc715"><path d="M 23 8.335938 L 24 8.335938 L 24 25.585938 L 23 25.585938 Z M 23 8.335938 " clip-rule="nonzero"/></clipPath><clipPath id="9c987ea9f4"><path d="M 30 8.335938 L 31 8.335938 L 31 25.585938 L 30 25.585938 Z M 30 8.335938 " clip-rule="nonzero"/></clipPath><clipPath id="1b0823f4a1"><path d="M 2 22 L 5 22 L 5 25.585938 L 2 25.585938 Z M 2 22 " clip-rule="nonzero"/></clipPath><clipPath id="50592fd512"><path d="M 1.695312 22 L 5 22 L 5 25.585938 L 1.695312 25.585938 Z M 1.695312 22 " clip-rule="nonzero"/></clipPath><clipPath id="3750b13a98"><path d="M 29 8.335938 L 31.695312 8.335938 L 31.695312 12 L 29 12 Z M 29 8.335938 " clip-rule="nonzero"/></clipPath><clipPath id="f7f2977a17"><path d="M 28 8.335938 L 31.695312 8.335938 L 31.695312 12 L 28 12 Z M 28 8.335938 " clip-rule="nonzero"/></clipPath><clipPath id="2b414d6052"><path d="M 1.695312 11 L 5 11 L 5 15 L 1.695312 15 Z M 1.695312 11 " clip-rule="nonzero"/></clipPath><clipPath id="a10ab97783"><path d="M 8 8.335938 L 12 8.335938 L 12 12 L 8 12 Z M 8 8.335938 " clip-rule="nonzero"/></clipPath><clipPath id="2c537c6715"><path d="M 15 22 L 18 22 L 18 25.585938 L 15 25.585938 Z M 15 22 " clip-rule="nonzero"/></clipPath><clipPath id="1be1f008aa"><path d="M 15 22 L 19 22 L 19 25.585938 L 15 25.585938 Z M 15 22 " clip-rule="nonzero"/></clipPath><clipPath id="972b14d3fc"><path d="M 29 19 L 31.695312 19 L 31.695312 23 L 29 23 Z M 29 19 " clip-rule="nonzero"/></clipPath><clipPath id="6072a05593"><path d="M 28 19 L 31.695312 19 L 31.695312 23 L 28 23 Z M 28 19 " clip-rule="nonzero"/></clipPath></defs><g clip-path="url(#9a2dca40e6)"><g clip-path="url(#f8e04dcd97)"><path fill="url(#23751c1d46)" d="M 0 33.5 L 33.5 33.5 L 33.5 0 L 0 0 Z M 0 33.5 " fill-rule="nonzero"/></g></g><g clip-path="url(#bd36867dc0)"><path stroke-linecap="round" transform="matrix(0.0524751, 0, 0, 0.0536366, 1.695178, 8.336586)" fill="none" stroke-linejoin="round" d="M 28.364239 3.410828 L 28.364239 314.678091 " stroke="#b3b3b3" stroke-width="6.779" stroke-opacity="1" stroke-miterlimit="4"/></g><g clip-path="url(#e25042236c)"><path stroke-linecap="round" transform="matrix(0.0524751, 0, 0, 0.0536366, 1.695178, 8.336586)" fill="none" stroke-linejoin="round" d="M 157.145637 3.410828 L 157.145637 314.678091 " stroke="#b3b3b3" stroke-width="6.779" stroke-opacity="1" stroke-miterlimit="4"/></g><g clip-path="url(#5f221abbc4)"><path stroke-linecap="round" transform="matrix(0.0524751, 0, 0, 0.0536366, 1.695178, 8.336586)" fill="none" stroke-linejoin="round" d="M 285.927035 3.410828 L 285.927035 314.678091 " stroke="#b3b3b3" stroke-width="6.779" stroke-opacity="1" stroke-miterlimit="4"/></g><g clip-path="url(#179b4dc715)"><path stroke-linecap="round" transform="matrix(0.0524751, 0, 0, 0.0536366, 1.695178, 8.336586)" fill="none" stroke-linejoin="round" d="M 414.485112 3.410828 L 414.485112 314.678091 " stroke="#b3b3b3" stroke-width="6.779" stroke-opacity="1" stroke-miterlimit="4"/></g><g clip-path="url(#9c987ea9f4)"><path stroke-linecap="round" transform="matrix(0.0524751, 0, 0, 0.0536366, 1.695178, 8.336586)" fill="none" stroke-linejoin="round" d="M 543.26651 3.410828 L 543.26651 314.678091 " stroke="#b3b3b3" stroke-width="6.779" stroke-opacity="1" stroke-miterlimit="4"/></g><path stroke-linecap="round" transform="matrix(0.0524751, 0, 0, 0.0536366, 1.695178, 8.336586)" fill="none" stroke-linejoin="round" d="M 28.364239 293.193804 L 157.145637 165.380503 L 285.927035 88.619695 L 414.485112 259.620054 L 543.26651 31.231159 " stroke="#5a6d85" stroke-width="13.789" stroke-opacity="1" stroke-miterlimit="4"/><g clip-path="url(#1b0823f4a1)"><path fill="#dd6966" d="M 4.3125 24.0625 C 4.3125 23.425781 3.808594 22.910156 3.183594 22.910156 C 2.5625 22.910156 2.058594 23.425781 2.058594 24.0625 C 2.058594 24.699219 2.5625 25.214844 3.183594 25.214844 C 3.808594 25.214844 4.3125 24.699219 4.3125 24.0625 Z M 4.3125 24.0625 " fill-opacity="1" fill-rule="evenodd"/></g><g clip-path="url(#50592fd512)"><path stroke-linecap="round" transform="matrix(0.0524751, 0, 0, 0.0536366, 1.695178, 8.336586)" fill="none" stroke-linejoin="round" d="M 49.877432 293.193804 C 49.877432 281.322825 40.274658 271.709517 28.364239 271.709517 C 16.528261 271.709517 6.925486 281.322825 6.925486 293.193804 C 6.925486 305.064783 16.528261 314.678091 28.364239 314.678091 C 40.274658 314.678091 49.877432 305.064783 49.877432 293.193804 Z M 49.877432 293.193804 " stroke="#5a6d85" stroke-width="13.789" stroke-opacity="1" stroke-miterlimit="4"/></g><path stroke-linecap="round" transform="matrix(0.0524751, 0, 0, 0.0536366, 1.695178, 8.336586)" fill-opacity="1" fill="#f69652" fill-rule="evenodd" stroke-linejoin="round" d="M 178.65883 165.380503 C 178.65883 153.509524 169.056055 143.896216 157.145637 143.896216 C 145.309659 143.896216 135.632444 153.509524 135.632444 165.380503 C 135.632444 177.251482 145.309659 186.86479 157.145637 186.86479 C 169.056055 186.86479 178.65883 177.251482 178.65883 165.380503 Z M 178.65883 165.380503 " stroke="#5a6d85" stroke-width="13.789" stroke-opacity="1" stroke-miterlimit="4"/><path stroke-linecap="round" transform="matrix(0.0524751, 0, 0, 0.0536366, 1.695178, 8.336586)" fill-opacity="1" fill="#ffce47" fill-rule="evenodd" stroke-linejoin="round" d="M 435.998305 259.620054 C 435.998305 247.749075 426.39553 238.062939 414.485112 238.062939 C 402.649134 238.062939 393.046359 247.749075 393.046359 259.620054 C 393.046359 271.491033 402.649134 281.104341 414.485112 281.104341 C 426.39553 281.104341 435.998305 271.491033 435.998305 259.620054 Z M 435.998305 259.620054 " stroke="#5a6d85" stroke-width="13.789" stroke-opacity="1" stroke-miterlimit="4"/><g clip-path="url(#3750b13a98)"><path fill="#87dbec" d="M 31.332031 10.011719 C 31.332031 9.375 30.828125 8.859375 30.203125 8.859375 C 29.582031 8.859375 29.074219 9.375 29.074219 10.011719 C 29.074219 10.648438 29.582031 11.164062 30.203125 11.164062 C 30.828125 11.164062 31.332031 10.648438 31.332031 10.011719 Z M 31.332031 10.011719 " fill-opacity="1" fill-rule="evenodd"/></g><g clip-path="url(#f7f2977a17)"><path stroke-linecap="round" transform="matrix(0.0524751, 0, 0, 0.0536366, 1.695178, 8.336586)" fill="none" stroke-linejoin="round" d="M 564.779703 31.231159 C 564.779703 19.36018 555.176928 9.746872 543.26651 9.746872 C 531.430531 9.746872 521.753317 19.36018 521.753317 31.231159 C 521.753317 43.102137 531.430531 52.715446 543.26651 52.715446 C 555.176928 52.715446 564.779703 43.102137 564.779703 31.231159 Z M 564.779703 31.231159 " stroke="#5a6d85" stroke-width="13.789" stroke-opacity="1" stroke-miterlimit="4"/></g><path stroke-linecap="round" transform="matrix(0.0524751, 0, 0, 0.0536366, 1.695178, 8.336586)" fill-opacity="1" fill="#add65c" fill-rule="evenodd" stroke-linejoin="round" d="M 307.440228 88.619695 C 307.440228 76.748716 297.837453 67.135408 285.927035 67.135408 C 274.091056 67.135408 264.413842 76.748716 264.413842 88.619695 C 264.413842 100.490674 274.091056 110.103982 285.927035 110.103982 C 297.837453 110.103982 307.440228 100.490674 307.440228 88.619695 Z M 307.440228 88.619695 " stroke="#5a6d85" stroke-width="13.789" stroke-opacity="1" stroke-miterlimit="4"/><path stroke-linecap="round" transform="matrix(0.0524751, 0, 0, 0.0536366, 1.695178, 8.336586)" fill="none" stroke-linejoin="round" d="M 28.364239 88.619695 L 157.145637 31.231159 L 285.927035 293.193804 L 414.485112 165.380503 L 543.26651 237.917282 " stroke="#e88f8d" stroke-width="13.789" stroke-opacity="1" stroke-miterlimit="4"/><path fill="#add65c" d="M 4.3125 13.089844 C 4.3125 12.453125 3.808594 11.9375 3.183594 11.9375 C 2.5625 11.9375 2.058594 12.453125 2.058594 13.089844 C 2.058594 13.726562 2.5625 14.242188 3.183594 14.242188 C 3.808594 14.242188 4.3125 13.726562 4.3125 13.089844 Z M 4.3125 13.089844 " fill-opacity="1" fill-rule="evenodd"/><g clip-path="url(#2b414d6052)"><path stroke-linecap="round" transform="matrix(0.0524751, 0, 0, 0.0536366, 1.695178, 8.336586)" fill="none" stroke-linejoin="round" d="M 49.877432 88.619695 C 49.877432 76.748716 40.274658 67.135408 28.364239 67.135408 C 16.528261 67.135408 6.925486 76.748716 6.925486 88.619695 C 6.925486 100.490674 16.528261 110.103982 28.364239 110.103982 C 40.274658 110.103982 49.877432 100.490674 49.877432 88.619695 Z M 49.877432 88.619695 " stroke="#e88f8d" stroke-width="13.789" stroke-opacity="1" stroke-miterlimit="4"/></g><g clip-path="url(#a10ab97783)"><path stroke-linecap="round" transform="matrix(0.0524751, 0, 0, 0.0536366, 1.695178, 8.336586)" fill-opacity="1" fill="#87dbec" fill-rule="evenodd" stroke-linejoin="round" d="M 178.65883 31.231159 C 178.65883 19.36018 169.056055 9.746872 157.145637 9.746872 C 145.309659 9.746872 135.632444 19.36018 135.632444 31.231159 C 135.632444 43.102137 145.309659 52.715446 157.145637 52.715446 C 169.056055 52.715446 178.65883 43.102137 178.65883 31.231159 Z M 178.65883 31.231159 " stroke="#e88f8d" stroke-width="13.789" stroke-opacity="1" stroke-miterlimit="4"/></g><g clip-path="url(#2c537c6715)"><path fill="#dd6966" d="M 17.828125 24.0625 C 17.828125 23.425781 17.324219 22.910156 16.699219 22.910156 C 16.078125 22.910156 15.570312 23.425781 15.570312 24.0625 C 15.570312 24.699219 16.078125 25.214844 16.699219 25.214844 C 17.324219 25.214844 17.828125 24.699219 17.828125 24.0625 Z M 17.828125 24.0625 " fill-opacity="1" fill-rule="evenodd"/></g><g clip-path="url(#1be1f008aa)"><path stroke-linecap="round" transform="matrix(0.0524751, 0, 0, 0.0536366, 1.695178, 8.336586)" fill="none" stroke-linejoin="round" d="M 307.440228 293.193804 C 307.440228 281.322825 297.837453 271.709517 285.927035 271.709517 C 274.091056 271.709517 264.413842 281.322825 264.413842 293.193804 C 264.413842 305.064783 274.091056 314.678091 285.927035 314.678091 C 297.837453 314.678091 307.440228 305.064783 307.440228 293.193804 Z M 307.440228 293.193804 " stroke="#e88f8d" stroke-width="13.789" stroke-opacity="1" stroke-miterlimit="4"/></g><path stroke-linecap="round" transform="matrix(0.0524751, 0, 0, 0.0536366, 1.695178, 8.336586)" fill-opacity="1" fill="#f69652" fill-rule="evenodd" stroke-linejoin="round" d="M 435.998305 165.380503 C 435.998305 153.509524 426.39553 143.896216 414.485112 143.896216 C 402.649134 143.896216 393.046359 153.509524 393.046359 165.380503 C 393.046359 177.251482 402.649134 186.86479 414.485112 186.86479 C 426.39553 186.86479 435.998305 177.251482 435.998305 165.380503 Z M 435.998305 165.380503 " stroke="#e88f8d" stroke-width="13.789" stroke-opacity="1" stroke-miterlimit="4"/><g clip-path="url(#972b14d3fc)"><path fill="#ffce47" d="M 31.332031 21.097656 C 31.332031 20.460938 30.828125 19.945312 30.203125 19.945312 C 29.582031 19.945312 29.074219 20.460938 29.074219 21.097656 C 29.074219 21.734375 29.582031 22.25 30.203125 22.25 C 30.828125 22.25 31.332031 21.734375 31.332031 21.097656 Z M 31.332031 21.097656 " fill-opacity="1" fill-rule="evenodd"/></g><g clip-path="url(#6072a05593)"><path stroke-linecap="round" transform="matrix(0.0524751, 0, 0, 0.0536366, 1.695178, 8.336586)" fill="none" stroke-linejoin="round" d="M 564.779703 237.917282 C 564.779703 226.046303 555.176928 216.432995 543.26651 216.432995 C 531.430531 216.432995 521.753317 226.046303 521.753317 237.917282 C 521.753317 249.788261 531.430531 259.401569 543.26651 259.401569 C 555.176928 259.401569 564.779703 249.788261 564.779703 237.917282 Z M 564.779703 237.917282 " stroke="#e88f8d" stroke-width="13.789" stroke-opacity="1" stroke-miterlimit="4"/></g></svg>