<svg xmlns="http://www.w3.org/2000/svg" xmlns:xlink="http://www.w3.org/1999/xlink" width="160" zoomAndPan="magnify" viewBox="0 0 120 33.749998" height="45" preserveAspectRatio="xMidYMid meet" version="1.0"><defs><g/><clipPath id="2572231bdf"><path d="M 0.441406 0 L 33.941406 0 L 33.941406 33.5 L 0.441406 33.5 Z M 0.441406 0 " clip-rule="nonzero"/></clipPath><clipPath id="2545540d60"><path d="M 33.941406 5.449219 L 33.941406 28.054688 C 33.941406 31.0625 31.503906 33.5 28.496094 33.5 L 5.886719 33.5 C 2.878906 33.5 0.441406 31.0625 0.441406 28.054688 L 0.441406 5.441406 C 0.441406 2.4375 2.878906 0 5.886719 0 L 28.503906 0 C 31.503906 0 33.941406 2.4375 33.941406 5.449219 Z M 33.941406 5.449219 " clip-rule="nonzero"/></clipPath><linearGradient x1="0.0000223148" gradientTransform="matrix(0.000000000000000004, -0.0670037, 0.0670037, 0.000000000000000004, 0.44118, 33.501835)" y1="250" x2="500.000024" gradientUnits="userSpaceOnUse" y2="250" id="11689fcf4f"><stop stop-opacity="1" stop-color="rgb(68.598938%, 68.598938%, 68.598938%)" offset="0"/><stop stop-opacity="1" stop-color="rgb(68.702698%, 68.702698%, 68.702698%)" offset="0.0078125"/><stop stop-opacity="1" stop-color="rgb(68.908691%, 68.908691%, 68.908691%)" offset="0.015625"/><stop stop-opacity="1" stop-color="rgb(69.116211%, 69.116211%, 69.116211%)" offset="0.0234375"/><stop stop-opacity="1" stop-color="rgb(69.32373%, 69.32373%, 69.32373%)" offset="0.03125"/><stop stop-opacity="1" stop-color="rgb(69.529724%, 69.529724%, 69.529724%)" offset="0.0390625"/><stop stop-opacity="1" stop-color="rgb(69.737244%, 69.737244%, 69.737244%)" offset="0.046875"/><stop stop-opacity="1" stop-color="rgb(69.943237%, 69.943237%, 69.943237%)" offset="0.0546875"/><stop stop-opacity="1" stop-color="rgb(70.150757%, 70.150757%, 70.150757%)" offset="0.0625"/><stop stop-opacity="1" stop-color="rgb(70.35675%, 70.35675%, 70.35675%)" offset="0.0703125"/><stop stop-opacity="1" stop-color="rgb(70.56427%, 70.56427%, 70.56427%)" offset="0.078125"/><stop stop-opacity="1" stop-color="rgb(70.77179%, 70.77179%, 70.77179%)" offset="0.0859375"/><stop stop-opacity="1" stop-color="rgb(70.977783%, 70.977783%, 70.977783%)" offset="0.09375"/><stop stop-opacity="1" stop-color="rgb(71.185303%, 71.185303%, 71.185303%)" offset="0.101563"/><stop stop-opacity="1" stop-color="rgb(71.391296%, 71.391296%, 71.391296%)" offset="0.109375"/><stop stop-opacity="1" stop-color="rgb(71.598816%, 71.598816%, 71.598816%)" offset="0.117188"/><stop stop-opacity="1" stop-color="rgb(71.806335%, 71.806335%, 71.806335%)" offset="0.125"/><stop stop-opacity="1" stop-color="rgb(72.012329%, 72.012329%, 72.012329%)" offset="0.132813"/><stop stop-opacity="1" stop-color="rgb(72.219849%, 72.219849%, 72.219849%)" offset="0.140625"/><stop stop-opacity="1" stop-color="rgb(72.425842%, 72.425842%, 72.425842%)" offset="0.148438"/><stop stop-opacity="1" stop-color="rgb(72.633362%, 72.633362%, 72.633362%)" offset="0.15625"/><stop stop-opacity="1" stop-color="rgb(72.840881%, 72.840881%, 72.840881%)" offset="0.164063"/><stop stop-opacity="1" stop-color="rgb(73.046875%, 73.046875%, 73.046875%)" offset="0.171875"/><stop stop-opacity="1" stop-color="rgb(73.254395%, 73.254395%, 73.254395%)" offset="0.179688"/><stop stop-opacity="1" stop-color="rgb(73.460388%, 73.460388%, 73.460388%)" offset="0.1875"/><stop stop-opacity="1" stop-color="rgb(73.667908%, 73.667908%, 73.667908%)" offset="0.195313"/><stop stop-opacity="1" stop-color="rgb(73.875427%, 73.875427%, 73.875427%)" offset="0.203125"/><stop stop-opacity="1" stop-color="rgb(74.081421%, 74.081421%, 74.081421%)" offset="0.210938"/><stop stop-opacity="1" stop-color="rgb(74.28894%, 74.28894%, 74.28894%)" offset="0.21875"/><stop stop-opacity="1" stop-color="rgb(74.494934%, 74.494934%, 74.494934%)" offset="0.226563"/><stop stop-opacity="1" stop-color="rgb(74.702454%, 74.702454%, 74.702454%)" offset="0.234375"/><stop stop-opacity="1" stop-color="rgb(74.908447%, 74.908447%, 74.908447%)" offset="0.242188"/><stop stop-opacity="1" stop-color="rgb(75.115967%, 75.115967%, 75.115967%)" offset="0.25"/><stop stop-opacity="1" stop-color="rgb(75.323486%, 75.323486%, 75.323486%)" offset="0.257812"/><stop stop-opacity="1" stop-color="rgb(75.52948%, 75.52948%, 75.52948%)" offset="0.265625"/><stop stop-opacity="1" stop-color="rgb(75.737%, 75.737%, 75.737%)" offset="0.273438"/><stop stop-opacity="1" stop-color="rgb(75.942993%, 75.942993%, 75.942993%)" offset="0.28125"/><stop stop-opacity="1" stop-color="rgb(76.150513%, 76.150513%, 76.150513%)" offset="0.289063"/><stop stop-opacity="1" stop-color="rgb(76.358032%, 76.358032%, 76.358032%)" offset="0.296875"/><stop stop-opacity="1" stop-color="rgb(76.564026%, 76.564026%, 76.564026%)" offset="0.304688"/><stop stop-opacity="1" stop-color="rgb(76.771545%, 76.771545%, 76.771545%)" offset="0.3125"/><stop stop-opacity="1" stop-color="rgb(76.977539%, 76.977539%, 76.977539%)" offset="0.320313"/><stop stop-opacity="1" stop-color="rgb(77.185059%, 77.185059%, 77.185059%)" offset="0.328125"/><stop stop-opacity="1" stop-color="rgb(77.392578%, 77.392578%, 77.392578%)" offset="0.335938"/><stop stop-opacity="1" stop-color="rgb(77.598572%, 77.598572%, 77.598572%)" offset="0.34375"/><stop stop-opacity="1" stop-color="rgb(77.806091%, 77.806091%, 77.806091%)" offset="0.351563"/><stop stop-opacity="1" stop-color="rgb(78.012085%, 78.012085%, 78.012085%)" offset="0.359375"/><stop stop-opacity="1" stop-color="rgb(78.219604%, 78.219604%, 78.219604%)" offset="0.367188"/><stop stop-opacity="1" stop-color="rgb(78.425598%, 78.425598%, 78.425598%)" offset="0.375"/><stop stop-opacity="1" stop-color="rgb(78.633118%, 78.633118%, 78.633118%)" offset="0.382813"/><stop stop-opacity="1" stop-color="rgb(78.840637%, 78.840637%, 78.840637%)" offset="0.390625"/><stop stop-opacity="1" stop-color="rgb(79.046631%, 79.046631%, 79.046631%)" offset="0.398438"/><stop stop-opacity="1" stop-color="rgb(79.25415%, 79.25415%, 79.25415%)" offset="0.40625"/><stop stop-opacity="1" stop-color="rgb(79.460144%, 79.460144%, 79.460144%)" offset="0.414063"/><stop stop-opacity="1" stop-color="rgb(79.667664%, 79.667664%, 79.667664%)" offset="0.421875"/><stop stop-opacity="1" stop-color="rgb(79.875183%, 79.875183%, 79.875183%)" offset="0.429688"/><stop stop-opacity="1" stop-color="rgb(80.081177%, 80.081177%, 80.081177%)" offset="0.4375"/><stop stop-opacity="1" stop-color="rgb(80.288696%, 80.288696%, 80.288696%)" offset="0.445313"/><stop stop-opacity="1" stop-color="rgb(80.49469%, 80.49469%, 80.49469%)" offset="0.453125"/><stop stop-opacity="1" stop-color="rgb(80.702209%, 80.702209%, 80.702209%)" offset="0.460938"/><stop stop-opacity="1" stop-color="rgb(80.909729%, 80.909729%, 80.909729%)" offset="0.46875"/><stop stop-opacity="1" stop-color="rgb(81.115723%, 81.115723%, 81.115723%)" offset="0.476563"/><stop stop-opacity="1" stop-color="rgb(81.323242%, 81.323242%, 81.323242%)" offset="0.484375"/><stop stop-opacity="1" stop-color="rgb(81.529236%, 81.529236%, 81.529236%)" offset="0.492188"/><stop stop-opacity="1" stop-color="rgb(81.736755%, 81.736755%, 81.736755%)" offset="0.5"/><stop stop-opacity="1" stop-color="rgb(81.951904%, 81.951904%, 81.951904%)" offset="0.507812"/><stop stop-opacity="1" stop-color="rgb(82.206726%, 82.206726%, 82.206726%)" offset="0.515625"/><stop stop-opacity="1" stop-color="rgb(82.492065%, 82.492065%, 82.492065%)" offset="0.523438"/><stop stop-opacity="1" stop-color="rgb(82.775879%, 82.775879%, 82.775879%)" offset="0.53125"/><stop stop-opacity="1" stop-color="rgb(83.061218%, 83.061218%, 83.061218%)" offset="0.539062"/><stop stop-opacity="1" stop-color="rgb(83.346558%, 83.346558%, 83.346558%)" offset="0.546875"/><stop stop-opacity="1" stop-color="rgb(83.630371%, 83.630371%, 83.630371%)" offset="0.554688"/><stop stop-opacity="1" stop-color="rgb(83.91571%, 83.91571%, 83.91571%)" offset="0.5625"/><stop stop-opacity="1" stop-color="rgb(84.199524%, 84.199524%, 84.199524%)" offset="0.570313"/><stop stop-opacity="1" stop-color="rgb(84.484863%, 84.484863%, 84.484863%)" offset="0.578125"/><stop stop-opacity="1" stop-color="rgb(84.768677%, 84.768677%, 84.768677%)" offset="0.585938"/><stop stop-opacity="1" stop-color="rgb(85.054016%, 85.054016%, 85.054016%)" offset="0.59375"/><stop stop-opacity="1" stop-color="rgb(85.33783%, 85.33783%, 85.33783%)" offset="0.601563"/><stop stop-opacity="1" stop-color="rgb(85.623169%, 85.623169%, 85.623169%)" offset="0.609375"/><stop stop-opacity="1" stop-color="rgb(85.908508%, 85.908508%, 85.908508%)" offset="0.617188"/><stop stop-opacity="1" stop-color="rgb(86.192322%, 86.192322%, 86.192322%)" offset="0.625"/><stop stop-opacity="1" stop-color="rgb(86.477661%, 86.477661%, 86.477661%)" offset="0.632813"/><stop stop-opacity="1" stop-color="rgb(86.761475%, 86.761475%, 86.761475%)" offset="0.640625"/><stop stop-opacity="1" stop-color="rgb(87.046814%, 87.046814%, 87.046814%)" offset="0.648438"/><stop stop-opacity="1" stop-color="rgb(87.330627%, 87.330627%, 87.330627%)" offset="0.65625"/><stop stop-opacity="1" stop-color="rgb(87.615967%, 87.615967%, 87.615967%)" offset="0.664063"/><stop stop-opacity="1" stop-color="rgb(87.89978%, 87.89978%, 87.89978%)" offset="0.671875"/><stop stop-opacity="1" stop-color="rgb(88.18512%, 88.18512%, 88.18512%)" offset="0.679688"/><stop stop-opacity="1" stop-color="rgb(88.470459%, 88.470459%, 88.470459%)" offset="0.6875"/><stop stop-opacity="1" stop-color="rgb(88.754272%, 88.754272%, 88.754272%)" offset="0.695313"/><stop stop-opacity="1" stop-color="rgb(89.039612%, 89.039612%, 89.039612%)" offset="0.703125"/><stop stop-opacity="1" stop-color="rgb(89.323425%, 89.323425%, 89.323425%)" offset="0.710938"/><stop stop-opacity="1" stop-color="rgb(89.608765%, 89.608765%, 89.608765%)" offset="0.71875"/><stop stop-opacity="1" stop-color="rgb(89.892578%, 89.892578%, 89.892578%)" offset="0.726563"/><stop stop-opacity="1" stop-color="rgb(90.177917%, 90.177917%, 90.177917%)" offset="0.734375"/><stop stop-opacity="1" stop-color="rgb(90.463257%, 90.463257%, 90.463257%)" offset="0.742188"/><stop stop-opacity="1" stop-color="rgb(90.74707%, 90.74707%, 90.74707%)" offset="0.75"/><stop stop-opacity="1" stop-color="rgb(91.03241%, 91.03241%, 91.03241%)" offset="0.757813"/><stop stop-opacity="1" stop-color="rgb(91.316223%, 91.316223%, 91.316223%)" offset="0.765625"/><stop stop-opacity="1" stop-color="rgb(91.601562%, 91.601562%, 91.601562%)" offset="0.773438"/><stop stop-opacity="1" stop-color="rgb(91.885376%, 91.885376%, 91.885376%)" offset="0.78125"/><stop stop-opacity="1" stop-color="rgb(92.170715%, 92.170715%, 92.170715%)" offset="0.789063"/><stop stop-opacity="1" stop-color="rgb(92.454529%, 92.454529%, 92.454529%)" offset="0.796875"/><stop stop-opacity="1" stop-color="rgb(92.739868%, 92.739868%, 92.739868%)" offset="0.804688"/><stop stop-opacity="1" stop-color="rgb(93.025208%, 93.025208%, 93.025208%)" offset="0.8125"/><stop stop-opacity="1" stop-color="rgb(93.309021%, 93.309021%, 93.309021%)" offset="0.820313"/><stop stop-opacity="1" stop-color="rgb(93.59436%, 93.59436%, 93.59436%)" offset="0.828125"/><stop stop-opacity="1" stop-color="rgb(93.878174%, 93.878174%, 93.878174%)" offset="0.835938"/><stop stop-opacity="1" stop-color="rgb(94.163513%, 94.163513%, 94.163513%)" offset="0.84375"/><stop stop-opacity="1" stop-color="rgb(94.447327%, 94.447327%, 94.447327%)" offset="0.851563"/><stop stop-opacity="1" stop-color="rgb(94.732666%, 94.732666%, 94.732666%)" offset="0.859375"/><stop stop-opacity="1" stop-color="rgb(95.016479%, 95.016479%, 95.016479%)" offset="0.867188"/><stop stop-opacity="1" stop-color="rgb(95.301819%, 95.301819%, 95.301819%)" offset="0.875"/><stop stop-opacity="1" stop-color="rgb(95.587158%, 95.587158%, 95.587158%)" offset="0.882812"/><stop stop-opacity="1" stop-color="rgb(95.870972%, 95.870972%, 95.870972%)" offset="0.890625"/><stop stop-opacity="1" stop-color="rgb(96.156311%, 96.156311%, 96.156311%)" offset="0.898438"/><stop stop-opacity="1" stop-color="rgb(96.440125%, 96.440125%, 96.440125%)" offset="0.90625"/><stop stop-opacity="1" stop-color="rgb(96.725464%, 96.725464%, 96.725464%)" offset="0.914062"/><stop stop-opacity="1" stop-color="rgb(97.009277%, 97.009277%, 97.009277%)" offset="0.921875"/><stop stop-opacity="1" stop-color="rgb(97.294617%, 97.294617%, 97.294617%)" offset="0.929688"/><stop stop-opacity="1" stop-color="rgb(97.57843%, 97.57843%, 97.57843%)" offset="0.9375"/><stop stop-opacity="1" stop-color="rgb(97.86377%, 97.86377%, 97.86377%)" offset="0.945312"/><stop stop-opacity="1" stop-color="rgb(98.149109%, 98.149109%, 98.149109%)" offset="0.953125"/><stop stop-opacity="1" stop-color="rgb(98.432922%, 98.432922%, 98.432922%)" offset="0.960938"/><stop stop-opacity="1" stop-color="rgb(98.718262%, 98.718262%, 98.718262%)" offset="0.96875"/><stop stop-opacity="1" stop-color="rgb(99.002075%, 99.002075%, 99.002075%)" offset="0.976562"/><stop stop-opacity="1" stop-color="rgb(99.287415%, 99.287415%, 99.287415%)" offset="0.984375"/><stop stop-opacity="1" stop-color="rgb(99.571228%, 99.571228%, 99.571228%)" offset="0.992188"/><stop stop-opacity="1" stop-color="rgb(99.856567%, 99.856567%, 99.856567%)" offset="1"/></linearGradient><clipPath id="4b4ddc6152"><path d="M 3 8.273438 L 4 8.273438 L 4 25.398438 L 3 25.398438 Z M 3 8.273438 " clip-rule="nonzero"/></clipPath><clipPath id="c41ef130e1"><path d="M 10 8.273438 L 11 8.273438 L 11 25.398438 L 10 25.398438 Z M 10 8.273438 " clip-rule="nonzero"/></clipPath><clipPath id="3a60f1ce01"><path d="M 16 8.273438 L 18 8.273438 L 18 25.398438 L 16 25.398438 Z M 16 8.273438 " clip-rule="nonzero"/></clipPath><clipPath id="d3ea4e04a8"><path d="M 23 8.273438 L 24 8.273438 L 24 25.398438 L 23 25.398438 Z M 23 8.273438 " clip-rule="nonzero"/></clipPath><clipPath id="851b5abd86"><path d="M 30 8.273438 L 31 8.273438 L 31 25.398438 L 30 25.398438 Z M 30 8.273438 " clip-rule="nonzero"/></clipPath><clipPath id="f1439ede65"><path d="M 2.125 22 L 5 22 L 5 25.398438 L 2.125 25.398438 Z M 2.125 22 " clip-rule="nonzero"/></clipPath><clipPath id="97b492d797"><path d="M 2.125 22 L 6 22 L 6 25.398438 L 2.125 25.398438 Z M 2.125 22 " clip-rule="nonzero"/></clipPath><clipPath id="cdfee9e6d2"><path d="M 29 8.273438 L 31.902344 8.273438 L 31.902344 12 L 29 12 Z M 29 8.273438 " clip-rule="nonzero"/></clipPath><clipPath id="8952da5182"><path d="M 28 8.273438 L 31.902344 8.273438 L 31.902344 12 L 28 12 Z M 28 8.273438 " clip-rule="nonzero"/></clipPath><clipPath id="3c9393fd51"><path d="M 2.125 11 L 5 11 L 5 15 L 2.125 15 Z M 2.125 11 " clip-rule="nonzero"/></clipPath><clipPath id="97fa1b8dbd"><path d="M 2.125 11 L 6 11 L 6 15 L 2.125 15 Z M 2.125 11 " clip-rule="nonzero"/></clipPath><clipPath id="c95894014a"><path d="M 9 8.273438 L 12 8.273438 L 12 12 L 9 12 Z M 9 8.273438 " clip-rule="nonzero"/></clipPath><clipPath id="4ad0481036"><path d="M 8 8.273438 L 12 8.273438 L 12 12 L 8 12 Z M 8 8.273438 " clip-rule="nonzero"/></clipPath><clipPath id="1041de1caf"><path d="M 15 22 L 19 22 L 19 25.398438 L 15 25.398438 Z M 15 22 " clip-rule="nonzero"/></clipPath><clipPath id="281e346fcd"><path d="M 29 19 L 31.902344 19 L 31.902344 23 L 29 23 Z M 29 19 " clip-rule="nonzero"/></clipPath><clipPath id="2ee00fe130"><path d="M 28 19 L 31.902344 19 L 31.902344 23 L 28 23 Z M 28 19 " clip-rule="nonzero"/></clipPath></defs><g clip-path="url(#2572231bdf)"><g clip-path="url(#2545540d60)"><path fill="url(#11689fcf4f)" d="M 0.441406 33.5 L 33.941406 33.5 L 33.941406 0 L 0.441406 0 Z M 0.441406 33.5 " fill-rule="nonzero"/></g></g><g clip-path="url(#4b4ddc6152)"><path stroke-linecap="round" transform="matrix(0.0520892, 0, 0, 0.0532422, 2.123893, 8.275287)" fill="none" stroke-linejoin="round" d="M 28.36804 3.413544 L 28.36804 314.638737 " stroke="#b3b3b3" stroke-width="6.779" stroke-opacity="1" stroke-miterlimit="4"/></g><g clip-path="url(#c41ef130e1)"><path stroke-linecap="round" transform="matrix(0.0520892, 0, 0, 0.0532422, 2.123893, 8.275287)" fill="none" stroke-linejoin="round" d="M 157.128481 3.413544 L 157.128481 314.638737 " stroke="#b3b3b3" stroke-width="6.779" stroke-opacity="1" stroke-miterlimit="4"/></g><g clip-path="url(#3a60f1ce01)"><path stroke-linecap="round" transform="matrix(0.0520892, 0, 0, 0.0532422, 2.123893, 8.275287)" fill="none" stroke-linejoin="round" d="M 285.963914 3.413544 L 285.963914 314.638737 " stroke="#b3b3b3" stroke-width="6.779" stroke-opacity="1" stroke-miterlimit="4"/></g><g clip-path="url(#d3ea4e04a8)"><path stroke-linecap="round" transform="matrix(0.0520892, 0, 0, 0.0532422, 2.123893, 8.275287)" fill="none" stroke-linejoin="round" d="M 414.499381 3.413544 L 414.499381 314.638737 " stroke="#b3b3b3" stroke-width="6.779" stroke-opacity="1" stroke-miterlimit="4"/></g><g clip-path="url(#851b5abd86)"><path stroke-linecap="round" transform="matrix(0.0520892, 0, 0, 0.0532422, 2.123893, 8.275287)" fill="none" stroke-linejoin="round" d="M 543.259823 3.413544 L 543.259823 314.638737 " stroke="#b3b3b3" stroke-width="6.779" stroke-opacity="1" stroke-miterlimit="4"/></g><path stroke-linecap="round" transform="matrix(0.0520892, 0, 0, 0.0532422, 2.123893, 8.275287)" fill="none" stroke-linejoin="round" d="M 28.36804 293.142042 L 157.128481 165.335751 L 285.963914 88.593282 L 414.499381 259.613066 L 543.259823 31.219849 " stroke="#5a6d85" stroke-width="13.789" stroke-opacity="1" stroke-miterlimit="4"/><g clip-path="url(#f1439ede65)"><path fill="#dd6966" d="M 4.722656 23.882812 C 4.722656 23.253906 4.222656 22.738281 3.601562 22.738281 C 2.984375 22.738281 2.484375 23.253906 2.484375 23.882812 C 2.484375 24.515625 2.984375 25.027344 3.601562 25.027344 C 4.222656 25.027344 4.722656 24.515625 4.722656 23.882812 Z M 4.722656 23.882812 " fill-opacity="1" fill-rule="evenodd"/></g><g clip-path="url(#97b492d797)"><path stroke-linecap="round" transform="matrix(0.0520892, 0, 0, 0.0532422, 2.123893, 8.275287)" fill="none" stroke-linejoin="round" d="M 49.890606 293.142042 C 49.890606 281.329865 40.291692 271.645346 28.36804 271.645346 C 16.51938 271.645346 6.920465 281.329865 6.920465 293.142042 C 6.920465 305.027587 16.51938 314.638737 28.36804 314.638737 C 40.291692 314.638737 49.890606 305.027587 49.890606 293.142042 Z M 49.890606 293.142042 " stroke="#5a6d85" stroke-width="13.789" stroke-opacity="1" stroke-miterlimit="4"/></g><path stroke-linecap="round" transform="matrix(0.0520892, 0, 0, 0.0532422, 2.123893, 8.275287)" fill-opacity="1" fill="#f69652" fill-rule="evenodd" stroke-linejoin="round" d="M 178.651048 165.335751 C 178.651048 153.523573 169.052133 143.839055 157.128481 143.839055 C 145.279821 143.839055 135.680906 153.523573 135.680906 165.335751 C 135.680906 177.221296 145.279821 186.832446 157.128481 186.832446 C 169.052133 186.832446 178.651048 177.221296 178.651048 165.335751 Z M 178.651048 165.335751 " stroke="#5a6d85" stroke-width="13.789" stroke-opacity="1" stroke-miterlimit="4"/><path stroke-linecap="round" transform="matrix(0.0520892, 0, 0, 0.0532422, 2.123893, 8.275287)" fill-opacity="1" fill="#ffce47" fill-rule="evenodd" stroke-linejoin="round" d="M 436.021948 259.613066 C 436.021948 247.727522 426.348042 238.116371 414.499381 238.116371 C 402.650721 238.116371 393.051806 247.727522 393.051806 259.613066 C 393.051806 271.425244 402.650721 281.109762 414.499381 281.109762 C 426.348042 281.109762 436.021948 271.425244 436.021948 259.613066 Z M 436.021948 259.613066 " stroke="#5a6d85" stroke-width="13.789" stroke-opacity="1" stroke-miterlimit="4"/><g clip-path="url(#cdfee9e6d2)"><path fill="#87dbec" d="M 31.542969 9.9375 C 31.542969 9.304688 31.042969 8.792969 30.421875 8.792969 C 29.804688 8.792969 29.304688 9.304688 29.304688 9.9375 C 29.304688 10.570312 29.804688 11.082031 30.421875 11.082031 C 31.042969 11.082031 31.542969 10.570312 31.542969 9.9375 Z M 31.542969 9.9375 " fill-opacity="1" fill-rule="evenodd"/></g><g clip-path="url(#8952da5182)"><path stroke-linecap="round" transform="matrix(0.0520892, 0, 0, 0.0532422, 2.123893, 8.275287)" fill="none" stroke-linejoin="round" d="M 564.782389 31.219849 C 564.782389 19.334304 555.183475 9.723154 543.259823 9.723154 C 531.411163 9.723154 521.812248 19.334304 521.812248 31.219849 C 521.812248 43.105394 531.411163 52.716545 543.259823 52.716545 C 555.183475 52.716545 564.782389 43.105394 564.782389 31.219849 Z M 564.782389 31.219849 " stroke="#5a6d85" stroke-width="13.789" stroke-opacity="1" stroke-miterlimit="4"/></g><path stroke-linecap="round" transform="matrix(0.0520892, 0, 0, 0.0532422, 2.123893, 8.275287)" fill-opacity="1" fill="#add65c" fill-rule="evenodd" stroke-linejoin="round" d="M 307.411489 88.593282 C 307.411489 76.707737 297.812575 67.096586 285.963914 67.096586 C 274.040263 67.096586 264.441348 76.707737 264.441348 88.593282 C 264.441348 100.478827 274.040263 110.089977 285.963914 110.089977 C 297.812575 110.089977 307.411489 100.478827 307.411489 88.593282 Z M 307.411489 88.593282 " stroke="#5a6d85" stroke-width="13.789" stroke-opacity="1" stroke-miterlimit="4"/><path stroke-linecap="round" transform="matrix(0.0520892, 0, 0, 0.0532422, 2.123893, 8.275287)" fill="none" stroke-linejoin="round" d="M 28.36804 88.593282 L 157.128481 31.219849 L 285.963914 293.142042 L 414.499381 165.335751 L 543.259823 237.896268 " stroke="#e88f8d" stroke-width="13.789" stroke-opacity="1" stroke-miterlimit="4"/><g clip-path="url(#3c9393fd51)"><path fill="#add65c" d="M 4.722656 12.992188 C 4.722656 12.359375 4.222656 11.847656 3.601562 11.847656 C 2.984375 11.847656 2.484375 12.359375 2.484375 12.992188 C 2.484375 13.625 2.984375 14.136719 3.601562 14.136719 C 4.222656 14.136719 4.722656 13.625 4.722656 12.992188 Z M 4.722656 12.992188 " fill-opacity="1" fill-rule="evenodd"/></g><g clip-path="url(#97fa1b8dbd)"><path stroke-linecap="round" transform="matrix(0.0520892, 0, 0, 0.0532422, 2.123893, 8.275287)" fill="none" stroke-linejoin="round" d="M 49.890606 88.593282 C 49.890606 76.707737 40.291692 67.096586 28.36804 67.096586 C 16.51938 67.096586 6.920465 76.707737 6.920465 88.593282 C 6.920465 100.478827 16.51938 110.089977 28.36804 110.089977 C 40.291692 110.089977 49.890606 100.478827 49.890606 88.593282 Z M 49.890606 88.593282 " stroke="#e88f8d" stroke-width="13.789" stroke-opacity="1" stroke-miterlimit="4"/></g><g clip-path="url(#c95894014a)"><path fill="#87dbec" d="M 11.429688 9.9375 C 11.429688 9.304688 10.929688 8.792969 10.308594 8.792969 C 9.691406 8.792969 9.191406 9.304688 9.191406 9.9375 C 9.191406 10.570312 9.691406 11.082031 10.308594 11.082031 C 10.929688 11.082031 11.429688 10.570312 11.429688 9.9375 Z M 11.429688 9.9375 " fill-opacity="1" fill-rule="evenodd"/></g><g clip-path="url(#4ad0481036)"><path stroke-linecap="round" transform="matrix(0.0520892, 0, 0, 0.0532422, 2.123893, 8.275287)" fill="none" stroke-linejoin="round" d="M 178.651048 31.219849 C 178.651048 19.334304 169.052133 9.723154 157.128481 9.723154 C 145.279821 9.723154 135.680906 19.334304 135.680906 31.219849 C 135.680906 43.105394 145.279821 52.716545 157.128481 52.716545 C 169.052133 52.716545 178.651048 43.105394 178.651048 31.219849 Z M 178.651048 31.219849 " stroke="#e88f8d" stroke-width="13.789" stroke-opacity="1" stroke-miterlimit="4"/></g><g clip-path="url(#1041de1caf)"><path stroke-linecap="round" transform="matrix(0.0520892, 0, 0, 0.0532422, 2.123893, 8.275287)" fill-opacity="1" fill="#dd6966" fill-rule="evenodd" stroke-linejoin="round" d="M 307.411489 293.142042 C 307.411489 281.329865 297.812575 271.645346 285.963914 271.645346 C 274.040263 271.645346 264.441348 281.329865 264.441348 293.142042 C 264.441348 305.027587 274.040263 314.638737 285.963914 314.638737 C 297.812575 314.638737 307.411489 305.027587 307.411489 293.142042 Z M 307.411489 293.142042 " stroke="#e88f8d" stroke-width="13.789" stroke-opacity="1" stroke-miterlimit="4"/></g><path stroke-linecap="round" transform="matrix(0.0520892, 0, 0, 0.0532422, 2.123893, 8.275287)" fill-opacity="1" fill="#f69652" fill-rule="evenodd" stroke-linejoin="round" d="M 436.021948 165.335751 C 436.021948 153.523573 426.348042 143.839055 414.499381 143.839055 C 402.650721 143.839055 393.051806 153.523573 393.051806 165.335751 C 393.051806 177.221296 402.650721 186.832446 414.499381 186.832446 C 426.348042 186.832446 436.021948 177.221296 436.021948 165.335751 Z M 436.021948 165.335751 " stroke="#e88f8d" stroke-width="13.789" stroke-opacity="1" stroke-miterlimit="4"/><g clip-path="url(#281e346fcd)"><path fill="#ffce47" d="M 31.542969 20.941406 C 31.542969 20.308594 31.042969 19.796875 30.421875 19.796875 C 29.804688 19.796875 29.304688 20.308594 29.304688 20.941406 C 29.304688 21.574219 29.804688 22.085938 30.421875 22.085938 C 31.042969 22.085938 31.542969 21.574219 31.542969 20.941406 Z M 31.542969 20.941406 " fill-opacity="1" fill-rule="evenodd"/></g><g clip-path="url(#2ee00fe130)"><path stroke-linecap="round" transform="matrix(0.0520892, 0, 0, 0.0532422, 2.123893, 8.275287)" fill="none" stroke-linejoin="round" d="M 564.782389 237.896268 C 564.782389 226.010724 555.183475 216.399573 543.259823 216.399573 C 531.411163 216.399573 521.812248 226.010724 521.812248 237.896268 C 521.812248 249.781813 531.411163 259.392964 543.259823 259.392964 C 555.183475 259.392964 564.782389 249.781813 564.782389 237.896268 Z M 564.782389 237.896268 " stroke="#e88f8d" stroke-width="13.789" stroke-opacity="1" stroke-miterlimit="4"/></g><g fill="#000000" fill-opacity="1"><g transform="translate(37.888787, 11.53952)"><g><path d="M 2.609375 -3.109375 L 2.609375 0 L 0.78125 0 L 0.78125 -8.8125 L 4.234375 -8.8125 C 4.890625 -8.8125 5.46875 -8.691406 5.96875 -8.453125 C 6.476562 -8.210938 6.867188 -7.867188 7.140625 -7.421875 C 7.410156 -6.972656 7.546875 -6.46875 7.546875 -5.90625 C 7.546875 -5.039062 7.25 -4.359375 6.65625 -3.859375 C 6.0625 -3.359375 5.242188 -3.109375 4.203125 -3.109375 Z M 2.609375 -4.578125 L 4.234375 -4.578125 C 4.710938 -4.578125 5.078125 -4.691406 5.328125 -4.921875 C 5.578125 -5.148438 5.703125 -5.472656 5.703125 -5.890625 C 5.703125 -6.316406 5.570312 -6.660156 5.3125 -6.921875 C 5.0625 -7.191406 4.710938 -7.332031 4.265625 -7.34375 L 2.609375 -7.34375 Z M 2.609375 -4.578125 "/></g></g></g><g fill="#000000" fill-opacity="1"><g transform="translate(45.887243, 11.53952)"><g><path d="M 4.46875 0 C 4.382812 -0.15625 4.328125 -0.351562 4.296875 -0.59375 C 3.867188 -0.113281 3.316406 0.125 2.640625 0.125 C 1.992188 0.125 1.457031 -0.0625 1.03125 -0.4375 C 0.613281 -0.8125 0.40625 -1.28125 0.40625 -1.84375 C 0.40625 -2.539062 0.660156 -3.070312 1.171875 -3.4375 C 1.691406 -3.8125 2.441406 -4 3.421875 -4 L 4.21875 -4 L 4.21875 -4.375 C 4.21875 -4.675781 4.140625 -4.914062 3.984375 -5.09375 C 3.828125 -5.28125 3.582031 -5.375 3.25 -5.375 C 2.957031 -5.375 2.726562 -5.300781 2.5625 -5.15625 C 2.394531 -5.019531 2.3125 -4.828125 2.3125 -4.578125 L 0.5625 -4.578125 C 0.5625 -4.960938 0.675781 -5.316406 0.90625 -5.640625 C 1.144531 -5.960938 1.476562 -6.210938 1.90625 -6.390625 C 2.332031 -6.578125 2.8125 -6.671875 3.34375 -6.671875 C 4.15625 -6.671875 4.796875 -6.46875 5.265625 -6.0625 C 5.742188 -5.65625 5.984375 -5.085938 5.984375 -4.359375 L 5.984375 -1.515625 C 5.984375 -0.890625 6.066406 -0.421875 6.234375 -0.109375 L 6.234375 0 Z M 3.015625 -1.21875 C 3.273438 -1.21875 3.515625 -1.273438 3.734375 -1.390625 C 3.953125 -1.503906 4.113281 -1.660156 4.21875 -1.859375 L 4.21875 -2.984375 L 3.5625 -2.984375 C 2.6875 -2.984375 2.222656 -2.679688 2.171875 -2.078125 L 2.15625 -1.96875 C 2.15625 -1.75 2.234375 -1.566406 2.390625 -1.421875 C 2.546875 -1.285156 2.753906 -1.21875 3.015625 -1.21875 Z M 3.015625 -1.21875 "/></g></g></g><g fill="#000000" fill-opacity="1"><g transform="translate(52.535468, 11.53952)"><g><path d="M 4.359375 -4.90625 C 4.117188 -4.945312 3.90625 -4.96875 3.71875 -4.96875 C 3.0625 -4.96875 2.628906 -4.738281 2.421875 -4.28125 L 2.421875 0 L 0.671875 0 L 0.671875 -6.546875 L 2.328125 -6.546875 L 2.375 -5.765625 C 2.726562 -6.367188 3.210938 -6.671875 3.828125 -6.671875 C 4.023438 -6.671875 4.207031 -6.644531 4.375 -6.59375 Z M 4.359375 -4.90625 "/></g></g></g><g fill="#000000" fill-opacity="1"><g transform="translate(57.05844, 11.53952)"><g><path d="M 2.515625 0 L 0.765625 0 L 0.765625 -6.546875 L 2.515625 -6.546875 Z M 0.65625 -8.25 C 0.65625 -8.507812 0.742188 -8.722656 0.921875 -8.890625 C 1.097656 -9.066406 1.335938 -9.15625 1.640625 -9.15625 C 1.941406 -9.15625 2.179688 -9.066406 2.359375 -8.890625 C 2.535156 -8.722656 2.625 -8.507812 2.625 -8.25 C 2.625 -7.976562 2.53125 -7.757812 2.34375 -7.59375 C 2.164062 -7.425781 1.929688 -7.34375 1.640625 -7.34375 C 1.347656 -7.34375 1.109375 -7.425781 0.921875 -7.59375 C 0.742188 -7.757812 0.65625 -7.976562 0.65625 -8.25 Z M 0.65625 -8.25 "/></g></g></g><g fill="#000000" fill-opacity="1"><g transform="translate(60.346224, 11.53952)"><g><path d="M 4.21875 -1.8125 C 4.21875 -2.019531 4.113281 -2.1875 3.90625 -2.3125 C 3.695312 -2.4375 3.359375 -2.546875 2.890625 -2.640625 C 1.328125 -2.972656 0.546875 -3.640625 0.546875 -4.640625 C 0.546875 -5.210938 0.785156 -5.691406 1.265625 -6.078125 C 1.753906 -6.472656 2.382812 -6.671875 3.15625 -6.671875 C 3.988281 -6.671875 4.65625 -6.472656 5.15625 -6.078125 C 5.65625 -5.691406 5.90625 -5.1875 5.90625 -4.5625 L 4.15625 -4.5625 C 4.15625 -4.8125 4.070312 -5.015625 3.90625 -5.171875 C 3.75 -5.335938 3.5 -5.421875 3.15625 -5.421875 C 2.863281 -5.421875 2.632812 -5.351562 2.46875 -5.21875 C 2.3125 -5.09375 2.234375 -4.925781 2.234375 -4.71875 C 2.234375 -4.519531 2.320312 -4.363281 2.5 -4.25 C 2.6875 -4.132812 3 -4.03125 3.4375 -3.9375 C 3.875 -3.851562 4.238281 -3.753906 4.53125 -3.640625 C 5.457031 -3.304688 5.921875 -2.722656 5.921875 -1.890625 C 5.921875 -1.285156 5.664062 -0.796875 5.15625 -0.421875 C 4.644531 -0.0546875 3.984375 0.125 3.171875 0.125 C 2.617188 0.125 2.128906 0.0234375 1.703125 -0.171875 C 1.273438 -0.367188 0.941406 -0.632812 0.703125 -0.96875 C 0.460938 -1.3125 0.34375 -1.679688 0.34375 -2.078125 L 2 -2.078125 C 2.007812 -1.773438 2.125 -1.539062 2.34375 -1.375 C 2.5625 -1.207031 2.847656 -1.125 3.203125 -1.125 C 3.535156 -1.125 3.785156 -1.1875 3.953125 -1.3125 C 4.128906 -1.4375 4.21875 -1.601562 4.21875 -1.8125 Z M 4.21875 -1.8125 "/></g></g></g><g fill="#000000" fill-opacity="1"><g transform="translate(66.72198, 11.53952)"><g><path d="M 4.46875 0 C 4.382812 -0.15625 4.328125 -0.351562 4.296875 -0.59375 C 3.867188 -0.113281 3.316406 0.125 2.640625 0.125 C 1.992188 0.125 1.457031 -0.0625 1.03125 -0.4375 C 0.613281 -0.8125 0.40625 -1.28125 0.40625 -1.84375 C 0.40625 -2.539062 0.660156 -3.070312 1.171875 -3.4375 C 1.691406 -3.8125 2.441406 -4 3.421875 -4 L 4.21875 -4 L 4.21875 -4.375 C 4.21875 -4.675781 4.140625 -4.914062 3.984375 -5.09375 C 3.828125 -5.28125 3.582031 -5.375 3.25 -5.375 C 2.957031 -5.375 2.726562 -5.300781 2.5625 -5.15625 C 2.394531 -5.019531 2.3125 -4.828125 2.3125 -4.578125 L 0.5625 -4.578125 C 0.5625 -4.960938 0.675781 -5.316406 0.90625 -5.640625 C 1.144531 -5.960938 1.476562 -6.210938 1.90625 -6.390625 C 2.332031 -6.578125 2.8125 -6.671875 3.34375 -6.671875 C 4.15625 -6.671875 4.796875 -6.46875 5.265625 -6.0625 C 5.742188 -5.65625 5.984375 -5.085938 5.984375 -4.359375 L 5.984375 -1.515625 C 5.984375 -0.890625 6.066406 -0.421875 6.234375 -0.109375 L 6.234375 0 Z M 3.015625 -1.21875 C 3.273438 -1.21875 3.515625 -1.273438 3.734375 -1.390625 C 3.953125 -1.503906 4.113281 -1.660156 4.21875 -1.859375 L 4.21875 -2.984375 L 3.5625 -2.984375 C 2.6875 -2.984375 2.222656 -2.679688 2.171875 -2.078125 L 2.15625 -1.96875 C 2.15625 -1.75 2.234375 -1.566406 2.390625 -1.421875 C 2.546875 -1.285156 2.753906 -1.21875 3.015625 -1.21875 Z M 3.015625 -1.21875 "/></g></g></g><g fill="#000000" fill-opacity="1"><g transform="translate(37.888787, 28.66268)"><g><path d="M 5.359375 -2.3125 C 5.359375 -2.65625 5.238281 -2.914062 5 -3.09375 C 4.757812 -3.28125 4.320312 -3.472656 3.6875 -3.671875 C 3.0625 -3.878906 2.5625 -4.082031 2.1875 -4.28125 C 1.1875 -4.820312 0.6875 -5.550781 0.6875 -6.46875 C 0.6875 -6.945312 0.820312 -7.375 1.09375 -7.75 C 1.363281 -8.125 1.75 -8.414062 2.25 -8.625 C 2.75 -8.832031 3.3125 -8.9375 3.9375 -8.9375 C 4.570312 -8.9375 5.132812 -8.820312 5.625 -8.59375 C 6.113281 -8.363281 6.492188 -8.039062 6.765625 -7.625 C 7.046875 -7.21875 7.1875 -6.75 7.1875 -6.21875 L 5.359375 -6.21875 C 5.359375 -6.625 5.234375 -6.9375 4.984375 -7.15625 C 4.734375 -7.382812 4.375 -7.5 3.90625 -7.5 C 3.46875 -7.5 3.125 -7.40625 2.875 -7.21875 C 2.632812 -7.03125 2.515625 -6.78125 2.515625 -6.46875 C 2.515625 -6.1875 2.65625 -5.945312 2.9375 -5.75 C 3.226562 -5.550781 3.65625 -5.367188 4.21875 -5.203125 C 5.25 -4.890625 6 -4.503906 6.46875 -4.046875 C 6.945312 -3.585938 7.1875 -3.015625 7.1875 -2.328125 C 7.1875 -1.566406 6.894531 -0.96875 6.3125 -0.53125 C 5.738281 -0.09375 4.960938 0.125 3.984375 0.125 C 3.304688 0.125 2.6875 0 2.125 -0.25 C 1.570312 -0.5 1.148438 -0.835938 0.859375 -1.265625 C 0.566406 -1.703125 0.421875 -2.207031 0.421875 -2.78125 L 2.234375 -2.78125 C 2.234375 -1.800781 2.816406 -1.3125 3.984375 -1.3125 C 4.421875 -1.3125 4.757812 -1.398438 5 -1.578125 C 5.238281 -1.753906 5.359375 -2 5.359375 -2.3125 Z M 5.359375 -2.3125 "/></g></g></g><g fill="#000000" fill-opacity="1"><g transform="translate(45.511842, 28.66268)"><g><path d="M 4.46875 0 C 4.382812 -0.15625 4.328125 -0.351562 4.296875 -0.59375 C 3.867188 -0.113281 3.316406 0.125 2.640625 0.125 C 1.992188 0.125 1.457031 -0.0625 1.03125 -0.4375 C 0.613281 -0.8125 0.40625 -1.28125 0.40625 -1.84375 C 0.40625 -2.539062 0.660156 -3.070312 1.171875 -3.4375 C 1.691406 -3.8125 2.441406 -4 3.421875 -4 L 4.21875 -4 L 4.21875 -4.375 C 4.21875 -4.675781 4.140625 -4.914062 3.984375 -5.09375 C 3.828125 -5.28125 3.582031 -5.375 3.25 -5.375 C 2.957031 -5.375 2.726562 -5.300781 2.5625 -5.15625 C 2.394531 -5.019531 2.3125 -4.828125 2.3125 -4.578125 L 0.5625 -4.578125 C 0.5625 -4.960938 0.675781 -5.316406 0.90625 -5.640625 C 1.144531 -5.960938 1.476562 -6.210938 1.90625 -6.390625 C 2.332031 -6.578125 2.8125 -6.671875 3.34375 -6.671875 C 4.15625 -6.671875 4.796875 -6.46875 5.265625 -6.0625 C 5.742188 -5.65625 5.984375 -5.085938 5.984375 -4.359375 L 5.984375 -1.515625 C 5.984375 -0.890625 6.066406 -0.421875 6.234375 -0.109375 L 6.234375 0 Z M 3.015625 -1.21875 C 3.273438 -1.21875 3.515625 -1.273438 3.734375 -1.390625 C 3.953125 -1.503906 4.113281 -1.660156 4.21875 -1.859375 L 4.21875 -2.984375 L 3.5625 -2.984375 C 2.6875 -2.984375 2.222656 -2.679688 2.171875 -2.078125 L 2.15625 -1.96875 C 2.15625 -1.75 2.234375 -1.566406 2.390625 -1.421875 C 2.546875 -1.285156 2.753906 -1.21875 3.015625 -1.21875 Z M 3.015625 -1.21875 "/></g></g></g><g fill="#000000" fill-opacity="1"><g transform="translate(52.160067, 28.66268)"><g><path d="M 2.515625 0 L 0.765625 0 L 0.765625 -9.3125 L 2.515625 -9.3125 Z M 2.515625 0 "/></g></g></g><g fill="#000000" fill-opacity="1"><g transform="translate(55.44785, 28.66268)"><g><path d="M 2.3125 -6.546875 L 2.375 -5.828125 C 2.832031 -6.390625 3.457031 -6.671875 4.25 -6.671875 C 5.09375 -6.671875 5.671875 -6.335938 5.984375 -5.671875 C 6.453125 -6.335938 7.109375 -6.671875 7.953125 -6.671875 C 8.671875 -6.671875 9.203125 -6.460938 9.546875 -6.046875 C 9.890625 -5.640625 10.0625 -5.019531 10.0625 -4.1875 L 10.0625 0 L 8.3125 0 L 8.3125 -4.1875 C 8.3125 -4.550781 8.238281 -4.816406 8.09375 -4.984375 C 7.945312 -5.160156 7.691406 -5.25 7.328125 -5.25 C 6.796875 -5.25 6.429688 -5 6.234375 -4.5 L 6.234375 0 L 4.484375 0 L 4.484375 -4.171875 C 4.484375 -4.554688 4.410156 -4.832031 4.265625 -5 C 4.117188 -5.164062 3.863281 -5.25 3.5 -5.25 C 3 -5.25 2.640625 -5.046875 2.421875 -4.640625 L 2.421875 0 L 0.671875 0 L 0.671875 -6.546875 Z M 2.3125 -6.546875 "/></g></g></g><g fill="#000000" fill-opacity="1"><g transform="translate(66.183099, 28.66268)"><g><path d="M 4.46875 0 C 4.382812 -0.15625 4.328125 -0.351562 4.296875 -0.59375 C 3.867188 -0.113281 3.316406 0.125 2.640625 0.125 C 1.992188 0.125 1.457031 -0.0625 1.03125 -0.4375 C 0.613281 -0.8125 0.40625 -1.28125 0.40625 -1.84375 C 0.40625 -2.539062 0.660156 -3.070312 1.171875 -3.4375 C 1.691406 -3.8125 2.441406 -4 3.421875 -4 L 4.21875 -4 L 4.21875 -4.375 C 4.21875 -4.675781 4.140625 -4.914062 3.984375 -5.09375 C 3.828125 -5.28125 3.582031 -5.375 3.25 -5.375 C 2.957031 -5.375 2.726562 -5.300781 2.5625 -5.15625 C 2.394531 -5.019531 2.3125 -4.828125 2.3125 -4.578125 L 0.5625 -4.578125 C 0.5625 -4.960938 0.675781 -5.316406 0.90625 -5.640625 C 1.144531 -5.960938 1.476562 -6.210938 1.90625 -6.390625 C 2.332031 -6.578125 2.8125 -6.671875 3.34375 -6.671875 C 4.15625 -6.671875 4.796875 -6.46875 5.265625 -6.0625 C 5.742188 -5.65625 5.984375 -5.085938 5.984375 -4.359375 L 5.984375 -1.515625 C 5.984375 -0.890625 6.066406 -0.421875 6.234375 -0.109375 L 6.234375 0 Z M 3.015625 -1.21875 C 3.273438 -1.21875 3.515625 -1.273438 3.734375 -1.390625 C 3.953125 -1.503906 4.113281 -1.660156 4.21875 -1.859375 L 4.21875 -2.984375 L 3.5625 -2.984375 C 2.6875 -2.984375 2.222656 -2.679688 2.171875 -2.078125 L 2.15625 -1.96875 C 2.15625 -1.75 2.234375 -1.566406 2.390625 -1.421875 C 2.546875 -1.285156 2.753906 -1.21875 3.015625 -1.21875 Z M 3.015625 -1.21875 "/></g></g></g><g fill="#000000" fill-opacity="1"><g transform="translate(72.831323, 28.66268)"><g><path d="M 2.28125 -6.546875 L 2.34375 -5.796875 C 2.8125 -6.378906 3.4375 -6.671875 4.21875 -6.671875 C 4.914062 -6.671875 5.429688 -6.46875 5.765625 -6.0625 C 6.109375 -5.65625 6.285156 -5.046875 6.296875 -4.234375 L 6.296875 0 L 4.546875 0 L 4.546875 -4.1875 C 4.546875 -4.5625 4.460938 -4.832031 4.296875 -5 C 4.140625 -5.164062 3.875 -5.25 3.5 -5.25 C 3 -5.25 2.628906 -5.039062 2.390625 -4.625 L 2.390625 0 L 0.640625 0 L 0.640625 -6.546875 Z M 2.28125 -6.546875 "/></g></g></g><g fill="#000000" fill-opacity="1"><g transform="translate(79.776236, 28.66268)"><g><path d="M 2.515625 0 L 0.765625 0 L 0.765625 -6.546875 L 2.515625 -6.546875 Z M 0.65625 -8.25 C 0.65625 -8.507812 0.742188 -8.722656 0.921875 -8.890625 C 1.097656 -9.066406 1.335938 -9.15625 1.640625 -9.15625 C 1.941406 -9.15625 2.179688 -9.066406 2.359375 -8.890625 C 2.535156 -8.722656 2.625 -8.507812 2.625 -8.25 C 2.625 -7.976562 2.53125 -7.757812 2.34375 -7.59375 C 2.164062 -7.425781 1.929688 -7.34375 1.640625 -7.34375 C 1.347656 -7.34375 1.109375 -7.425781 0.921875 -7.59375 C 0.742188 -7.757812 0.65625 -7.976562 0.65625 -8.25 Z M 0.65625 -8.25 "/></g></g></g><g fill="#000000" fill-opacity="1"><g transform="translate(83.064019, 28.66268)"><g><path d="M 4.46875 0 C 4.382812 -0.15625 4.328125 -0.351562 4.296875 -0.59375 C 3.867188 -0.113281 3.316406 0.125 2.640625 0.125 C 1.992188 0.125 1.457031 -0.0625 1.03125 -0.4375 C 0.613281 -0.8125 0.40625 -1.28125 0.40625 -1.84375 C 0.40625 -2.539062 0.660156 -3.070312 1.171875 -3.4375 C 1.691406 -3.8125 2.441406 -4 3.421875 -4 L 4.21875 -4 L 4.21875 -4.375 C 4.21875 -4.675781 4.140625 -4.914062 3.984375 -5.09375 C 3.828125 -5.28125 3.582031 -5.375 3.25 -5.375 C 2.957031 -5.375 2.726562 -5.300781 2.5625 -5.15625 C 2.394531 -5.019531 2.3125 -4.828125 2.3125 -4.578125 L 0.5625 -4.578125 C 0.5625 -4.960938 0.675781 -5.316406 0.90625 -5.640625 C 1.144531 -5.960938 1.476562 -6.210938 1.90625 -6.390625 C 2.332031 -6.578125 2.8125 -6.671875 3.34375 -6.671875 C 4.15625 -6.671875 4.796875 -6.46875 5.265625 -6.0625 C 5.742188 -5.65625 5.984375 -5.085938 5.984375 -4.359375 L 5.984375 -1.515625 C 5.984375 -0.890625 6.066406 -0.421875 6.234375 -0.109375 L 6.234375 0 Z M 3.015625 -1.21875 C 3.273438 -1.21875 3.515625 -1.273438 3.734375 -1.390625 C 3.953125 -1.503906 4.113281 -1.660156 4.21875 -1.859375 L 4.21875 -2.984375 L 3.5625 -2.984375 C 2.6875 -2.984375 2.222656 -2.679688 2.171875 -2.078125 L 2.15625 -1.96875 C 2.15625 -1.75 2.234375 -1.566406 2.390625 -1.421875 C 2.546875 -1.285156 2.753906 -1.21875 3.015625 -1.21875 Z M 3.015625 -1.21875 "/></g></g></g><g fill="#000000" fill-opacity="1"><g transform="translate(89.712244, 28.66268)"><g><path d="M 2.28125 -6.546875 L 2.34375 -5.796875 C 2.8125 -6.378906 3.4375 -6.671875 4.21875 -6.671875 C 4.914062 -6.671875 5.429688 -6.46875 5.765625 -6.0625 C 6.109375 -5.65625 6.285156 -5.046875 6.296875 -4.234375 L 6.296875 0 L 4.546875 0 L 4.546875 -4.1875 C 4.546875 -4.5625 4.460938 -4.832031 4.296875 -5 C 4.140625 -5.164062 3.875 -5.25 3.5 -5.25 C 3 -5.25 2.628906 -5.039062 2.390625 -4.625 L 2.390625 0 L 0.640625 0 L 0.640625 -6.546875 Z M 2.28125 -6.546875 "/></g></g></g></svg>